<svg xmlns="http://www.w3.org/2000/svg" viewBox="0 0 512 512">
  <defs>
    <linearGradient id="g" x1="0" y1="0" x2="1" y2="1"><stop offset="0" stop-color="#17b05e"/><stop offset="1" stop-color="#05402a"/></linearGradient>
    <clipPath id="c"><circle cx="256" cy="256" r="118"/></clipPath>
  </defs>
  <rect width="512" height="512" rx="112" fill="url(#g)"/>
  <g fill="#fff" opacity=".07"><rect y="0" width="512" height="86"/><rect y="172" width="512" height="86"/><rect y="344" width="512" height="86"/></g>
  <circle cx="256" cy="256" r="178" fill="none" stroke="#fff" stroke-opacity=".2" stroke-width="10"/>
  <circle cx="256" cy="256" r="134" fill="none" stroke="#f6b21b" stroke-width="10"/>
  <circle cx="256" cy="256" r="118" fill="#fff"/>
  <g clip-path="url(#c)" fill="#0a1a3d" stroke="#0a1a3d" stroke-linejoin="round">
    <polygon points="256,218 292,244 278,286 234,286 220,244" stroke-width="6"/>
    <g stroke-width="9" stroke-linecap="round">
      <line x1="256" y1="218" x2="256" y2="138"/><line x1="292" y1="244" x2="368" y2="220"/><line x1="278" y1="286" x2="324" y2="350"/>
      <line x1="234" y1="286" x2="188" y2="350"/><line x1="220" y1="244" x2="144" y2="220"/>
    </g>
    <polygon points="256,128 292,112 318,128 308,160 270,160" stroke-width="4" transform="translate(-52 -6) scale(1)"/>
    <polygon points="256,128 292,112 318,128 308,160 270,160" stroke-width="4" transform="rotate(72 256 256) translate(-52 -6)"/>
    <polygon points="256,128 292,112 318,128 308,160 270,160" stroke-width="4" transform="rotate(144 256 256) translate(-52 -6)"/>
    <polygon points="256,128 292,112 318,128 308,160 270,160" stroke-width="4" transform="rotate(216 256 256) translate(-52 -6)"/>
    <polygon points="256,128 292,112 318,128 308,160 270,160" stroke-width="4" transform="rotate(288 256 256) translate(-52 -6)"/>
  </g>
  <circle cx="256" cy="256" r="118" fill="none" stroke="#0a1a3d" stroke-width="5"/>
</svg>
